<svg width="64" height="31" viewBox="0 0 64 31" fill="none" xmlns="http://www.w3.org/2000/svg">
<path opacity="0.6" d="M0 8H4V31H0V8Z" fill="#7A66CC"/>
<path opacity="0.6" fill-rule="evenodd" clip-rule="evenodd" d="M3.5 8.5H0.5V30.5H3.5V8.5ZM0 8V31H4V8H0Z" fill="#7A66CC"/>
<path opacity="0.3" d="M4 18H8V31H4V18Z" fill="#7A66CC"/>
<path opacity="0.3" fill-rule="evenodd" clip-rule="evenodd" d="M7.5 18.5H4.5V30.5H7.5V18.5ZM4 18V31H8V18H4Z" fill="#7A66CC"/>
<path opacity="0.8" d="M8 5H12V31H8V5Z" fill="#7A66CC"/>
<path opacity="0.8" fill-rule="evenodd" clip-rule="evenodd" d="M11.5 5.5H8.5V30.5H11.5V5.5ZM8 5V31H12V5H8Z" fill="#7A66CC"/>
<path opacity="0.6" d="M12 12H16V31H12V12Z" fill="#7A66CC"/>
<path opacity="0.6" fill-rule="evenodd" clip-rule="evenodd" d="M15.5 12.5H12.5V30.5H15.5V12.5ZM12 12V31H16V12H12Z" fill="#7A66CC"/>
<path d="M16 0H20V31H16V0Z" fill="#7A66CC"/>
<path fill-rule="evenodd" clip-rule="evenodd" d="M19.5 0.5H16.5V30.5H19.5V0.5ZM16 0V31H20V0H16Z" fill="#7A66CC"/>
<path opacity="0.9" d="M20 5H24V31H20V5Z" fill="#7A66CC"/>
<path opacity="0.9" fill-rule="evenodd" clip-rule="evenodd" d="M23.5 5.5H20.5V30.5H23.5V5.5ZM20 5V31H24V5H20Z" fill="#7A66CC"/>
<path opacity="0.6" d="M24 10H28V31H24V10Z" fill="#7A66CC"/>
<path opacity="0.6" fill-rule="evenodd" clip-rule="evenodd" d="M27.5 10.5H24.5V30.5H27.5V10.5ZM24 10V31H28V10H24Z" fill="#7A66CC"/>
<path opacity="0.8" d="M28 3H32V31H28V3Z" fill="#7A66CC"/>
<path opacity="0.8" fill-rule="evenodd" clip-rule="evenodd" d="M31.5 3.5H28.5V30.5H31.5V3.5ZM28 3V31H32V3H28Z" fill="#7A66CC"/>
<path opacity="0.4" d="M32 17H36V31H32V17Z" fill="#7A66CC"/>
<path opacity="0.4" fill-rule="evenodd" clip-rule="evenodd" d="M35.5 17.5H32.5V30.5H35.5V17.5ZM32 17V31H36V17H32Z" fill="#7A66CC"/>
<path opacity="0.5" d="M36 12H40V31H36V12Z" fill="#7A66CC"/>
<path opacity="0.5" fill-rule="evenodd" clip-rule="evenodd" d="M39.5 12.5H36.5V30.5H39.5V12.5ZM36 12V31H40V12H36Z" fill="#7A66CC"/>
<path opacity="0.55" d="M40 8H44V31H40V8Z" fill="#7A66CC"/>
<path opacity="0.55" fill-rule="evenodd" clip-rule="evenodd" d="M43.5 8.5H40.5V30.5H43.5V8.5ZM40 8V31H44V8H40Z" fill="#7A66CC"/>
<path opacity="0.6" d="M44 4H48V31H44V4Z" fill="#7A66CC"/>
<path opacity="0.6" fill-rule="evenodd" clip-rule="evenodd" d="M47.5 4.5H44.5V30.5H47.5V4.5ZM44 4V31H48V4H44Z" fill="#7A66CC"/>
<path opacity="0.3" d="M48 19H52V31H48V19Z" fill="#7A66CC"/>
<path opacity="0.3" fill-rule="evenodd" clip-rule="evenodd" d="M51.5 19.5H48.5V30.5H51.5V19.5ZM48 19V31H52V19H48Z" fill="#7A66CC"/>
<path opacity="0.2" d="M52 24H56V31H52V24Z" fill="#7A66CC"/>
<path opacity="0.2" fill-rule="evenodd" clip-rule="evenodd" d="M55.5 24.5H52.5V30.5H55.5V24.5ZM52 24V31H56V24H52Z" fill="#7A66CC"/>
<path opacity="0.8" d="M56 2H60V31H56V2Z" fill="#7A66CC"/>
<path opacity="0.8" fill-rule="evenodd" clip-rule="evenodd" d="M59.5 2.5H56.5V30.5H59.5V2.5ZM56 2V31H60V2H56Z" fill="#7A66CC"/>
<path opacity="0.8" d="M60 8H64V31H60V8Z" fill="#7A66CC"/>
<path opacity="0.8" fill-rule="evenodd" clip-rule="evenodd" d="M63.5 8.5H60.5V30.5H63.5V8.5ZM60 8V31H64V8H60Z" fill="#7A66CC"/>
</svg>
