<svg width="40" height="60" viewBox="0 0 40 60" fill="none" xmlns="http://www.w3.org/2000/svg">
<g opacity="0.5">
<path fill-rule="evenodd" clip-rule="evenodd" d="M39 1H10C5.02944 1 1 5.02944 1 10V59H30C34.9706 59 39 54.9706 39 50V1ZM10 0C4.47715 0 0 4.47715 0 10V60H30C35.5228 60 40 55.5228 40 50V0H10Z" fill="white"/>
<path fill-rule="evenodd" clip-rule="evenodd" d="M12.8284 26.4646L9.64645 29.6465C9.45119 29.8418 9.45119 30.1584 9.64645 30.3537L12.8284 33.5356C13.0237 33.7309 13.3403 33.7309 13.5355 33.5356C13.7308 33.3404 13.7308 33.0238 13.5355 32.8285L11.2071 30.5001L30 30.5001L30 29.5001L11.2071 29.5001L13.5355 27.1717C13.7308 26.9764 13.7308 26.6598 13.5355 26.4646C13.3403 26.2693 13.0237 26.2693 12.8284 26.4646Z" fill="white"/>
</g>
</svg>
